<svg xmlns="http://www.w3.org/2000/svg" viewBox="0 0 216 216"><path d="M111.9,134.6c1,1.1,1,1.7-.1,2.7a10.7,10.7,0,0,1-1.9,1.8,1.6,1.6,0,0,1-2.2,0l-1.4-1.2-29-29c-1.4-1.4-1.4-1.8,0-3.1l1.8-1.6a1.6,1.6,0,0,1,1.1-.5,1.5,1.5,0,0,1,.9.4l1.4,1.2Z" transform="translate(0 0)" style="fill:#18d5b0"/><path d="M115.5,117.9c.1.5-.3.8-.6,1.1l-2.2,2.3c-.9.9-1.3.9-2.3,0l-9.2-9.3-6.1-6.1c-1.2-1.1-1.2-1.6,0-2.6l1.8-1.8c1.1-1.2,1.4-1.2,2.6,0l6.6,6.6,8.7,8.7C115.1,117.1,115.5,117.4,115.5,117.9Z" transform="translate(0 0)" style="fill:#18d5b0"/><path d="M144.8,90.5,125.5,71.1a1.4,1.4,0,0,0-1.9-.4l-.4.4L103.9,90.4c-1,1-.9,1.3.1,2.3L123.3,112c1,1,1.3,1,2.3-.1l8.3-8.3,10.8-10.7a2.6,2.6,0,0,0,.8-1.3A2.6,2.6,0,0,0,144.8,90.5Zm-8.4,1.9c-3.8,3.7-7.5,7.4-11.2,11.2a1.1,1.1,0,0,1-1.5.3l-.3-.3L112.3,92.5a1.2,1.2,0,0,1-.2-1.7l.2-.2c3.8-3.7,7.5-7.4,11.2-11.2.6-.6,1.1-.5,1.7.1l11.2,11.2a1,1,0,0,1,.5.8,1.1,1.1,0,0,1-.5.9Z" transform="translate(0 0)" style="fill:#18d5b0"/><path d="M163.3,37c3.5-3.4,10.7-4.1,14.5.1.7.8,1.5,1.5,2.1,2.3a3.8,3.8,0,0,0,4,1.2l1.4-.5c1.3-.7,1.4-1.1.7-2.4a17.1,17.1,0,0,0-22.7-8.1,19.4,19.4,0,0,0-4.7,3.4L147.2,44.4c-1.2,1.2-1.6,1.2-2.8,0l-9.5-9.6-3.6-3.6c-.9-.9-1.5-.9-2.4,0l-1,.9L67.1,93c-11.8,11.9-23.7,23.8-35.6,35.5-1.4,1.5-1.4,1.7.1,3.2l12.7,12.6c1.3,1.3,1.3,1.7,0,3L33,158.6a17.4,17.4,0,0,0,.3,24.5,18.4,18.4,0,0,0,4.3,3c1.2.6,1.8.5,2.6-.7a4,4,0,0,0-1.1-5.6h-.2c-5.3-3.4-6.4-11.5-2.1-16.1,5.8-6.1,11.7-12.1,17.9-17.8,3.4-3.2,7.4-3.7,11.6-1.9a10.6,10.6,0,0,1,6.8,9.9,11.7,11.7,0,0,1-3.8,8.6L55.5,176.2c-.4.5-.9.9-.7,1.6a22.1,22.1,0,0,1,.5,6.8,5.1,5.1,0,0,0,2.1-1.5l11.5-11.5c1.1-1.1,1.5-1.1,2.6,0l3.5,3.5,9.8,9.8c1,1,1.4,1,2.3,0l45.6-45.6,51.6-51.5c1.6-1.6,1.6-2.1,0-3.6L171.8,71.8c-1.5-1.4-1.4-1.7,0-3.2l11.6-11.5a4.2,4.2,0,0,0,1.1-1.8,19.4,19.4,0,0,1-5.9-.3,3,3,0,0,0-2.8.9L162,69.6a11.1,11.1,0,0,1-18-2.9,10.6,10.6,0,0,1,1.8-12.2C151.5,48.6,157.5,42.8,163.3,37ZM104.1,159.2,87.3,176.1c-1.1,1.1-1.5,1.1-2.7,0l-8.8-8.9c-1.1-1.1-1.1-1.3-.2-2.5A17.3,17.3,0,0,0,76,144a18,18,0,0,0-14.5-7.3A17.3,17.3,0,0,0,52,140c-1.8,1.3-2.3,1.2-3.8-.4L40,131.4c-1.2-1.2-1.2-1.5,0-2.7l16.8-16.8c1.3-1.3,1.4-1.3,2.8,0l34,34,10.5,10.6C105.4,157.7,105.4,158,104.1,159.2ZM150.8,79l3.2.3a16.3,16.3,0,0,0,10.4-3.5c1.6-1.1,1.6-1.1,3,.3l8.6,8.5c1.2,1.2,1.2,1.6,0,2.7l-49.3,49.3-15.2,15.3c-1.5,1.5-1.9,1.5-3.3,0L69.5,113.2l-5.3-5.3c-1.6-1.5-1.6-1.9,0-3.4l42-42c7.3-7.3,14.5-14.6,21.8-21.8a4.7,4.7,0,0,1,1-1,1.3,1.3,0,0,1,1.8-.3l.3.3c3,3.1,6,6.2,9.1,9.1,1,.9.7,1.9.1,2.8a17.3,17.3,0,0,0-3.5,8.1A17.8,17.8,0,0,0,150.8,79Z" transform="translate(0 0)" style="fill:#18d5b0"/><path d="M168.2,24a4.2,4.2,0,0,1,.9-1.4c6.1-6,12.2-12.1,18.2-18.2C191.1.6,195.8-.4,200.9.1c8.9.8,14.7,9.3,15.1,16.3a17.1,17.1,0,0,1-5,13c-5.5,5.7-11.1,11.3-16.7,16.8a17.5,17.5,0,0,1-24.7-.4,16,16,0,0,1-3.2-4.5,1.2,1.2,0,0,1,.2-1.7h.2a6.5,6.5,0,0,1,4.1-1.1,1.3,1.3,0,0,1,1.3.8,11.4,11.4,0,0,0,15.5,4.3,13.9,13.9,0,0,0,2.7-2.1l15.9-16a11.3,11.3,0,0,0,.2-16,10.5,10.5,0,0,0-2.7-2,10.9,10.9,0,0,0-12.6,1.7L176.5,23.8a1.3,1.3,0,0,1-1.3.5A27.4,27.4,0,0,0,168.2,24Z" transform="translate(0 0)" style="fill:#18d5b0"/><path d="M24,167.9c0,2.7-.2,5,.4,7.3.2.5-.2.9-.5,1.2-4.7,4.6-9.1,9.3-13.8,13.8s-4.7,7.5-3.3,12.4c2.2,7.2,12.3,9.7,17.8,4.4s11.7-11.6,17.5-17.5c4-4.1,3.9-11.4-.5-15.1-.9-.8-1.6-1.9-2.8-2.4a.9.9,0,0,1-.5-.8,6.9,6.9,0,0,1,1-4.2c.7-1,1.5-.8,2.4-.3a16,16,0,0,1,6.9,6.5c3.9,7.3,3.6,14.9-2.6,21.2s-11.1,11.3-16.8,16.8a17.2,17.2,0,0,1-23.9-.1A17.1,17.1,0,0,1,4.7,187c5.7-6,11.6-11.7,17.5-17.5Z" transform="translate(0 0)" style="fill:#18d5b0"/><path d="M144.8,90.5,125.5,71.1a1.4,1.4,0,0,0-1.9-.4l-.4.4L103.9,90.4c-1,1-.9,1.3.1,2.3L123.3,112c1,1,1.3,1,2.3-.1l8.3-8.3,10.8-10.7a2.6,2.6,0,0,0,.8-1.3A2.6,2.6,0,0,0,144.8,90.5Zm-8.4,1.9c-3.8,3.7-7.5,7.4-11.2,11.2a1.1,1.1,0,0,1-1.5.3l-.3-.3L112.3,92.5a1.2,1.2,0,0,1-.2-1.7l.2-.2c3.8-3.7,7.5-7.4,11.2-11.2.6-.6,1.1-.5,1.7.1l11.2,11.2a1,1,0,0,1,.5.8,1.1,1.1,0,0,1-.5.9Z" transform="translate(0 0)" style="fill:#18d5b0"/><path d="M111.8,137.3a10.7,10.7,0,0,1-1.9,1.8,1.6,1.6,0,0,1-2.2,0l-1.4-1.2-29-29c-1.4-1.4-1.4-1.8,0-3.1l1.8-1.6a1.6,1.6,0,0,1,1.1-.5,1.5,1.5,0,0,1,.9.4l1.4,1.2,29.4,29.3C112.9,135.7,112.9,136.3,111.8,137.3Z" transform="translate(0 0)" style="fill:#18d5b0"/><path d="M115.5,117.9c.1.5-.3.8-.6,1.1l-2.2,2.3c-.9.9-1.3.9-2.3,0l-9.2-9.3-6.1-6.1c-1.2-1.1-1.2-1.6,0-2.6l1.8-1.8c1.1-1.2,1.4-1.2,2.6,0l6.6,6.6,8.7,8.7C115.1,117.1,115.5,117.4,115.5,117.9Z" transform="translate(0 0)" style="fill:#18d5b0"/></svg>