<svg xmlns="http://www.w3.org/2000/svg" viewBox="0 0 13.1 48.3"><path d="M6,48.3H5.9a2.8,2.8,0,0,1-2.2-2.4V41.5h0a.6.6,0,0,1,.1-.4l.2.3.5.4c.2.1.2.2.2.3v3.7a2.2,2.2,0,0,0,1,1.3,1.8,1.8,0,0,0,2.6-1.2c0-.1.1-.3.1-.4v-4a1.8,1.8,0,0,0-1.1-1.6l-.5-.2H5.7l-.3-.4c0-.3,0-.4.2-.5H6.7a2.6,2.6,0,0,1,1.7.7,2.7,2.7,0,0,1,1,1.8v4.2a3.4,3.4,0,0,1-.5,1.7,2.8,2.8,0,0,1-1.7,1.1H6Z" style="fill:#1dd9b5"/><path d="M13.1,24.2V35.6h0a.2.2,0,0,1-.2.2H9.8c-.4,0-.4,0-.4.4v2.9H9.3l-.2-.2a1,1,0,0,0-.5-.4c-.2-.1-.2-.3-.2-.5v-3a1.3,1.3,0,0,0-.1-.6,1.7,1.7,0,0,0-1.7-1.5,1.9,1.9,0,0,0-1.9,1.6v4.2a1.8,1.8,0,0,0,1.6,1.8H7a.6.6,0,0,1,.7.6.2.2,0,0,1-.2.2l-.7.2a2.8,2.8,0,0,1-3-2.1,1.9,1.9,0,0,1-.1-.8V36.1a.2.2,0,0,0-.2-.2H.4c-.4,0-.4,0-.4-.4V12.7a.3.3,0,0,1,.3-.3H3.5a.2.2,0,0,0,.2-.2V9.4a2.8,2.8,0,0,1,.6-1.8,3.2,3.2,0,0,1,1.8-1H7.5l.2.2c-.1.2-.2.5-.4.6s-.1.1-.2.1H6.9a1.4,1.4,0,0,0-.9,0l-.4.2a1.6,1.6,0,0,0-.9,1.5v4.2a2,2,0,0,0,.8,1.3,1.8,1.8,0,0,0,2.4-.3,2.1,2.1,0,0,0,.5-1.3V10a.4.4,0,0,1,.1-.3l.7-.6h.2v3.1a.2.2,0,0,0,.2.2h3.3l.2.2V24.2ZM1,21.3H1v7.8l.2.2H11.9l.2-.2V13.8c0-.3-.1-.4-.4-.4H9.6l-.2.2v.6a3,3,0,0,1-2.8,2,2.5,2.5,0,0,1-2-.9,2.3,2.3,0,0,1-.7-1.4c-.1-.1-.1-.1-.1-.2s-.1-.3-.3-.3H1.2l-.2.2v7.7Zm5.6,9H1.2c-.1,0-.2,0-.2.2H1v4a.3.3,0,0,0,.3.3H3.4c.2,0,.3-.1.3-.2v-.3A2.9,2.9,0,0,1,7,32.1a2.7,2.7,0,0,1,2.2,1.8,6.4,6.4,0,0,1,.2.7c0,.2,0,.3.3.3h2c.3,0,.4-.1.4-.3h0V30.7h0a.3.3,0,0,0-.3-.3H6.6Z" style="fill:#1dd9b5"/><path d="M3.7,4.7v-2A2.8,2.8,0,0,1,4,1.4,3.1,3.1,0,0,1,5.7.1H7.2A2.9,2.9,0,0,1,9.4,2.5V6.6a2.2,2.2,0,0,1-.1.8A2.9,2.9,0,0,1,7,9.6a3.3,3.3,0,0,1-1.4-.1c-.2-.1-.2-.1-.2-.3a.7.7,0,0,1,.4-.6h.3A1.9,1.9,0,0,0,8.4,6.7V2.8A1.9,1.9,0,0,0,7.3,1.2,1.8,1.8,0,0,0,4.7,2.8V6.3a.1.1,0,0,1-.1.1l-.8.7c0,.1,0,.1-.1.1h0V4.7Z" style="fill:#1dd9b5"/><path d="M6.5,22.8H4.2c-.1,0-.2,0-.2-.1V18.1c0-.3.1-.3.3-.3H8.9c.1,0,.1,0,.1.2s.1.2.1.4a26.7,26.7,0,0,0,0,4c0,.1-.1.2-.1.3s0,.1-.1.1H6.5ZM8,20.3V19c0-.1,0-.2-.1-.2H5.3c-.3,0-.3,0-.3.3v2.4H5c0,.2.1.2.2.2H7.8c.2,0,.2,0,.2-.2V20.3Z" style="fill:#1dd9b5"/><path d="M6.6,26.8h3.6a.2.2,0,0,1,.2.2v.6c0,.1-.1.2-.3.2H2.9c-.1-.1-.2-.1-.2-.3v-.5c0-.2.1-.2.3-.3H6.6Z" style="fill:#1dd9b5"/><path d="M6.5,25.4H4.8c-.3,0-.3,0-.3-.3v-.5c0-.2,0-.2.2-.2H8.5c.1,0,.1.1.1.2v.6c0,.1,0,.2-.1.2h-2Z" style="fill:#1dd9b5"/></svg>