<svg xmlns="http://www.w3.org/2000/svg" viewBox="0 0 99.9 48.3"><path d="M100.1,14.7H98c-.2,0-.3.1-.3.2V25.3l-.2.2H94.9c-.1,0-.1,0-.1-.2V14.9c-.1-.1-.1-.2-.3-.2h-2c-.1,0-.1-.1-.1-.2h0V12.5c0-.3,0-.3.3-.3h7.4Z" transform="translate(-0.1 -0.1)" style="fill:#fff"/><path d="M6.2,48.4H6.1a2.8,2.8,0,0,1-2.2-2.4.4.4,0,0,1-.1-.3v-4h0c.1-.1,0-.3.1-.4l.3.2a1.2,1.2,0,0,0,.5.5c.1.1.1.1.1.3v3.1a1.3,1.3,0,0,0,.1.6,1.7,1.7,0,0,0,1,1.3A1.9,1.9,0,0,0,8.5,46V41.6A1.6,1.6,0,0,0,7.4,40L7,39.8H6.1c-.1,0-.2,0-.2-.1s-.3-.3-.3-.4-.1-.4.2-.5a1.7,1.7,0,0,1,1-.1,2.9,2.9,0,0,1,1.8.7,3.1,3.1,0,0,1,.9,1.8c0,.3.1.5.1.8s-.1,2.2-.1,3.4a2.8,2.8,0,0,1-2.1,2.8H6.2Z" transform="translate(-0.1 -0.1)" style="fill:#1dd9b5"/><path d="M13.2,24.3V35.7h0c0,.1,0,.2-.2.2H9.9c-.3,0-.4,0-.4.4s.1,1.7.1,2.6-.1.2-.1.3a.1.1,0,0,1-.1.1c0-.1-.1-.1-.1-.2l-.6-.4a.8.8,0,0,1-.2-.5V34.6a1.8,1.8,0,0,0-3.6.1v.4c-.1,1.3-.1,2.6-.1,3.9a1.9,1.9,0,0,0,1.6,1.8h.7a.6.6,0,0,1,.7.6c0,.1,0,.2-.1.2l-.7.2a2.9,2.9,0,0,1-3.1-2.1c0-.3-.1-.5-.1-.8V36.2c0-.1,0-.2-.2-.2H.6c-.4,0-.5,0-.5-.4s.1-2.5.1-3.8V17.6c0-1.4-.1-2.9-.1-4.3a.7.7,0,0,1,.1-.5c0-.2,0-.3.2-.3H3.6l.2-.2V9.5a2.4,2.4,0,0,1,.7-1.8,2.7,2.7,0,0,1,1.7-1,3.3,3.3,0,0,1,1.4.1.1.1,0,0,0,.1.1c.1,0,.1.1.1.2s-.2.4-.3.6H6.2L5.7,8a1.6,1.6,0,0,0-.8,1.5,4.9,4.9,0,0,0-.1,1.2,24.4,24.4,0,0,0,.1,2.7v.3A1.4,1.4,0,0,0,5.7,15,1.7,1.7,0,0,0,8,14.7a2.1,2.1,0,0,0,.5-1.3V10.1a.4.4,0,0,1,.1-.3l.8-.6h.1c0,.1.1.2.1.3s-.1,1.7-.1,2.6v.2c0,.1,0,.2.1.2H13l.2.2V24.3Zm-12-2.9h0v7.8c0,.1,0,.1.1.2H12a.2.2,0,0,0,.2-.2V13.9c0-.3,0-.4-.4-.4H9.7l-.2.2v.2a.8.8,0,0,1-.1.4,2.8,2.8,0,0,1-2.7,2,2.9,2.9,0,0,1-2.1-.9A2.3,2.3,0,0,1,3.9,14v-.2a.3.3,0,0,0-.3-.3H1.3c-.1,0-.1.1-.1.2v7.7Zm5.5,9H1.4c-.2,0-.2,0-.2.2h0v4c0,.2,0,.3.2.3H3.6a.2.2,0,0,0,.2-.2.4.4,0,0,0,.1-.3,2.9,2.9,0,0,1,3.3-2.3A2.9,2.9,0,0,1,9.4,34c0,.2.1.4.1.7s.1.3.4.3h2c.3,0,.3-.1.3-.3h0V30.8h0c0-.2,0-.3-.3-.3H6.7Z" transform="translate(-0.1 -0.1)" style="fill:#1dd9b5"/><path d="M33.4,18.9l.6-1.8c.6-1.5,1.1-3,1.7-4.6h0c.1-.2.2-.2.3-.2h2.5c.2,0,.3,0,.3.3V25.1c0,.5-.1.4-.4.4H36.3c-.3,0-.3,0-.3-.3s-.1-3.2,0-4.8a14.8,14.8,0,0,1,.1-2.1,1.3,1.3,0,0,0,.1-.6h-.1c0,.1,0,.1-.1.1s-.9,2.7-1.4,4-.1.4-.5.4H32.6c-.3,0-.3-.1-.4-.3s-.3-.9-.5-1.3l-.9-2.7c-.1,0-.1-.1-.1-.2s-.1.3,0,.4.1,1.5.1,2.2v4.9a.3.3,0,0,1-.3.3H28.3c-.2,0-.3,0-.3-.2V12.4l.2-.2h2.5l.4.2v.2l2.2,6A.4.4,0,0,0,33.4,18.9Z" transform="translate(-0.1 -0.1)" style="fill:#fff"/><path d="M49.9,18.9V12.6c0-.4,0-.4.4-.4h5.1a3.1,3.1,0,0,1,1.3.6,2.3,2.3,0,0,1,.9,1.8c0,1,.1,2,0,3a5.7,5.7,0,0,1-.1,1.3,2.4,2.4,0,0,1-1.2,1.4c-.1,0-.1,0-.1.1s-.1,0-.1.1.9,2.3,1.4,3.4l.5,1.1a.4.4,0,0,0,.1.3c0,.1,0,.1-.1.1H55.2c-.2,0-.3-.1-.3-.2a.1.1,0,0,1-.1-.1c-.5-1.5-1-2.9-1.6-4.3l-.2-.2-.2.2v4.2h0c0,.3,0,.3-.3.3H50.2c-.3,0-.3,0-.3-.3V18.9Zm2.9-2.4v1.8h1.5a.8.8,0,0,0,.4-.4V15.1l-.3-.4H53c-.1,0-.2,0-.2.1v1.7Z" transform="translate(-0.1 -0.1)" style="fill:#fff"/><path d="M92.1,25.5H89.6c-.2,0-.2,0-.3-.2s-.1-.9-.2-1.4a5.2,5.2,0,0,1-.2-1.1h0c-.1-.2-.1-.2-.3-.2H86.5c-.3,0-.3,0-.3.3a15.5,15.5,0,0,0-.4,2.1c0,.2-.1.3-.1.4s-.1.2-.2.2H83.3c-.4,0-.4,0-.3-.3s.3-1.8.5-2.7.4-2.2.7-3.3l.6-3.2c.2-1.1.4-2.3.7-3.5h0c0-.2.1-.2.2-.2h3.7c.1,0,.2,0,.2.1s.1.3.1.5.5,2.8.8,4.2l.9,4.7c.2,1.2.5,2.3.7,3.5ZM87.5,15.1h-.1a3.6,3.6,0,0,1-.2,1.1c-.1,1.1-.3,2.2-.5,3.3v.2c0,.1,0,.2.1.2h1.6v-.2L88,18.1C87.9,17.1,87.7,16.1,87.5,15.1Z" transform="translate(-0.1 -0.1)" style="fill:#fff"/><path d="M49,25.5H46.3c-.1,0-.1,0-.1-.1l-.3-1.7c-.1-.3-.1-.6-.2-1h0c0-.1-.1-.1-.2-.1H43.3c-.2,0-.3,0-.3.2s-.3,1.7-.4,2.5-.1.3-.4.3H40c-.2,0-.2,0-.2-.2s.4-1.9.5-2.8.5-2.2.7-3.3.4-2.3.7-3.5l.6-3.2c.1-.3.1-.3.4-.3h3.5c.2,0,.2,0,.2.2s.1.5.2.7l.9,4.9.9,4.8a20.5,20.5,0,0,1,.5,2.4C48.9,25.3,49,25.4,49,25.5ZM44.3,15.1h0c-.2.9-.3,1.8-.5,2.6l-.3,2c0,.3,0,.3.3.3h1.3a.1.1,0,0,0,.1-.1v-.2c-.1-.3-.1-.7-.2-1l-.6-3.5Z" transform="translate(-0.1 -0.1)" style="fill:#fff"/><path d="M75.6,18.9V12.4c0-.2,0-.2.2-.2h6.3c.2,0,.2.1.2.2s0,.1,0,.2v1.7c.1.4,0,.4-.4.4H78.6c-.1,0-.1.1-.1.2h0v2.2h0c0,.3,0,.3.3.3h2.9c.1,0,.1.1.1.2v2a.1.1,0,0,1,0,.2c0,.1,0,.1-.1.1h-3c-.2,0-.2.1-.2.2v2.5c0,.3,0,.3.3.3h3.3c.2,0,.2.1.2.2s.1.1,0,.2v1.8a.1.1,0,0,1,.1.1c-.1.2-.2.2-.3.2H75.7c-.1,0-.1,0-.1-.1V18.9Z" transform="translate(-0.1 -0.1)" style="fill:#fff"/><path d="M66.8,23.8V22.7h0c0-.2.1-.2.2-.2l1.1.4a7.9,7.9,0,0,0,2.2.1l.6-.2a.7.7,0,0,0,.5-.7v-.7l-.3-.4-.4-.2-2.1-1.2-.7-.5a3.3,3.3,0,0,1-1.1-1.5c-.1-.2-.1-.5-.2-.8a12.1,12.1,0,0,1,.1-1.9,2.8,2.8,0,0,1,1.2-2.1l1.3-.5a7.6,7.6,0,0,1,3,0l1,.2c.4,0,.4.1.4.5v2c0,.4,0,.4-.3.3a5.1,5.1,0,0,0-2.7-.4h-.4a.7.7,0,0,0-.5.4,2.1,2.1,0,0,0,0,1.1,1,1,0,0,0,.4.7l.4.2,2.4,1.4.5.3a3,3,0,0,1,1,1.9v1.8A2.8,2.8,0,0,1,72.9,25a4.3,4.3,0,0,1-1.6.5,5.5,5.5,0,0,1-2.2.1H67.9l-.8-.2c-.3-.1-.3-.1-.3-.4V23.8Z" transform="translate(-0.1 -0.1)" style="fill:#fff"/><path d="M19.2,23.8V22.5h.3a7.1,7.1,0,0,0,3.2.4l.7-.2c.3-.1.4-.3.5-.7a1.3,1.3,0,0,0-.1-.6.8.8,0,0,0-.2-.5l-.4-.2-2.1-1.1-.5-.4-.7-.6a2.5,2.5,0,0,1-.8-1.8,9.6,9.6,0,0,1,0-1.7,2.8,2.8,0,0,1,.1-.9,2.4,2.4,0,0,1,1.3-1.5,3.3,3.3,0,0,1,1.2-.5,7.1,7.1,0,0,1,2.9,0h1.1c.3,0,.3.2.3.4v2.4s0,.1-.1,0h-.2a7.5,7.5,0,0,0-2.6-.4h-.7c-.2.1-.3.2-.3.4a2.7,2.7,0,0,0,0,.9.9.9,0,0,0,.3.7l.5.3,2.3,1.3.5.3A2.6,2.6,0,0,1,26.8,21v1.5a1.9,1.9,0,0,1-.1.8,2.5,2.5,0,0,1-1.1,1.5,5.1,5.1,0,0,1-1.5.7,10.5,10.5,0,0,1-2.5.1H20.3l-.8-.2h0q-.3-.2-.3-.3V23.8Z" transform="translate(-0.1 -0.1)" style="fill:#fff"/><path d="M60.8,20.1V15c0-.3,0-.3-.3-.3H58.7c-.3,0-.3,0-.3-.3V12.5h0c0-.2.1-.2.2-.2H66c.1,0,.2,0,.2.2v1.9h0c0,.3-.1.3-.3.3H64.2c-.4,0-.4,0-.4.5v10c0,.1,0,.1-.1.2s0,.1-.1.1H61c-.1,0-.2,0-.2-.1V20.1Z" transform="translate(-0.1 -0.1)" style="fill:#fff"/><path d="M3.8,4.8a13.3,13.3,0,0,0,0-2,2.8,2.8,0,0,1,.4-1.3A2.9,2.9,0,0,1,5.8.2H7.4A2.9,2.9,0,0,1,9.5,2.6c0,.2.1.4.1.6V6.7c0,.2-.1.5-.1.8A2.9,2.9,0,0,1,7.2,9.7a3.8,3.8,0,0,1-1.5-.1c-.1-.1-.2-.1-.1-.3A.8.8,0,0,1,6,8.6h.2A1.9,1.9,0,0,0,8.5,6.8V2.9A1.7,1.7,0,0,0,7.4,1.3,1.7,1.7,0,0,0,4.9,2.9C4.8,4,4.8,5.1,4.8,6.2v.2h0L4,7.2H3.9V4.8Z" transform="translate(-0.1 -0.1)" style="fill:#1dd9b5"/><path d="M64.3,33.6V29.4l.2-.2H65l.2.2V35h0c0,.3,0,.3-.4.3h-.2a.5.5,0,0,1-.5-.3v-.2c-.5-1.2-1-2.4-1.4-3.6l-.2-.3v4c0,.1.1.2,0,.3s0,.1-.1.1h-.5a.2.2,0,0,1-.2-.2V29.5c0-.2,0-.3.3-.3h.4l.3.3v.2c.5,1.2,1,2.4,1.4,3.7A.3.3,0,0,1,64.3,33.6Z" transform="translate(-0.1 -0.1)" style="fill:#1dd9b5"/><path d="M22,32.3h.1a1.1,1.1,0,0,1,.5.9v.9a1.3,1.3,0,0,1-1.3,1.2H19.4c-.1,0-.1,0-.1-.1V29.4c0-.1,0-.2.2-.2h2.2c.4.1.6.4.8.8h0a6.6,6.6,0,0,1,0,1.4,1,1,0,0,1-.4.7Zm-1.9,1.4h0v.8a.2.2,0,0,0,.2.2h1.2a.8.8,0,0,0,.2-.4v-.8q0-.4-.6-.6h-.7c-.2,0-.3,0-.3.2Zm.6-1.8H21c.4,0,.5-.2.6-.5a1.4,1.4,0,0,0,0-.9.6.6,0,0,0-.5-.5,1.1,1.1,0,0,0-.8,0,.2.2,0,0,0-.2.2h0v1.4c.1.1.1.2.2.2Z" transform="translate(-0.1 -0.1)" style="fill:#1dd9b5"/><path d="M32,32.3V34a1.3,1.3,0,0,1-.1.6,1.1,1.1,0,0,1-.6.7,2.1,2.1,0,0,1-1.9,0,1.1,1.1,0,0,1-.7-.9V31.6a2.2,2.2,0,0,0-.1-.8c0-.2.1-.3.1-.5a1.3,1.3,0,0,1,1.1-1.1h1.1A1.3,1.3,0,0,1,32,30.4v1.9Zm-.9,0h0V30.5c-.1-.3-.2-.5-.5-.5a.6.6,0,0,0-.6,0,.4.4,0,0,0-.4.4c-.1.1-.1.2-.1.4v3.1a.4.4,0,0,0,.1.3c0,.2.1.3.3.4a.8.8,0,0,0,.9,0c.2-.1.3-.2.3-.4V32.3Z" transform="translate(-0.1 -0.1)" style="fill:#1dd9b5"/><path d="M51.6,32.4v2.8c0,.2,0,.2-.2.2H51c-.2,0-.2-.1-.3-.2V33.1c0-.3,0-.3-.3-.3H49.3c-.3,0-.3,0-.3.2v2.3c0,.1-.1.1-.2.1h-.5l-.2-.2V29.4l.2-.2H49v2.4a.2.2,0,0,0,.2.2h1.2c.3,0,.3,0,.3-.3V29.4a.2.2,0,0,1,.2-.2h.5l.2.2v3Z" transform="translate(-0.1 -0.1)" style="fill:#1dd9b5"/><path d="M55.1,29.2h.4c.2,0,.3.1.4.3s.1.4.1.6.7,3.2,1,4.8a.4.4,0,0,1,.1.3c0,.1,0,.2-.1.2h-.5l-.3-.2V35c-.1-.3-.1-.6-.2-.9h0c-.1-.2-.1-.2-.3-.2H54.6c-.2,0-.2,0-.2.2a4.4,4.4,0,0,0-.2,1c-.1.4-.1.4-.5.4h-.3c-.1,0-.1-.1-.1-.2V35c.3-1.5.6-2.9,1-4.4a5.2,5.2,0,0,1,.2-1.1h0l.3-.2Zm.1,1h-.1a20.5,20.5,0,0,1-.5,2.4h0c0,.2,0,.2.2.2h.8c.1,0,.2,0,.1-.2h0a22.1,22.1,0,0,0-.5-2.5Z" transform="translate(-0.1 -0.1)" style="fill:#1dd9b5"/><path d="M86.8,32.3V29.4c0-.1,0-.2.1-.2h2.4c.3,0,.3.1.3.3v.3a.2.2,0,0,1-.2.2H87.9c-.2,0-.3,0-.3.2v1.4h0l.2.2h1.4c.1,0,.1.1.1.2v.4c0,.1,0,.2-.1.2H87.8l-.2.2h0v1.4h0a.3.3,0,0,0,.3.3h1.7v.4c0,.2-.1.2-.2.2H87.1c-.3,0-.3,0-.3-.3Z" transform="translate(-0.1 -0.1)" style="fill:#1dd9b5"/><path d="M96.7,35.5H95.6c-.2-.1-.2-.1-.2-.3v-.5c0-.1,0-.1.1-.1h.6a1.4,1.4,0,0,0,.9,0h.3c.2,0,.3-.2.4-.4v-.3a.9.9,0,0,0-.4-.8l-.4-.2-.7-.3-.3-.2a1.4,1.4,0,0,1-.6-1.2,2.2,2.2,0,0,1,.1-.8,1.2,1.2,0,0,1,1.1-1.1,3.8,3.8,0,0,1,1.5.1h.3v.7H96.7c-.2.1-.4.2-.4.4a1,1,0,0,0,.4,1.3l1,.6.5.3a1.1,1.1,0,0,1,.3.8,1.7,1.7,0,0,1,0,1,1.4,1.4,0,0,1-.8,1Z" transform="translate(-0.1 -0.1)" style="fill:#1dd9b5"/><path d="M77,32.4V30.8a1.3,1.3,0,0,1,.1-.6,1.2,1.2,0,0,1,.8-.9h1.8c.2.1.2.2.2.3v.4c0,.1-.1.1-.2.1H78.4c-.3.1-.4.2-.4.4a.6.6,0,0,0-.1.4v3.4a.5.5,0,0,0,.6.4,2,2,0,0,0,1.1,0h.2c.1,0,.1,0,.1.1v.5c0,.1,0,.2-.1.2H78a1.2,1.2,0,0,1-1-1.3V32.4Z" transform="translate(-0.1 -0.1)" style="fill:#1dd9b5"/><path d="M33.9,32.3V30.2a1.1,1.1,0,0,1,.8-.9h1.8q.3.2.3.3c0,.2,0,.3-.1.4s0,.1-.1.1H35.2c-.2.1-.4.2-.4.4v3.8a.5.5,0,0,0,.5.4h1.4a.1.1,0,0,1,.1.1v.6h-2a1.2,1.2,0,0,1-.9-1.3V32.3Z" transform="translate(-0.1 -0.1)" style="fill:#1dd9b5"/><path d="M43.4,32.4V30.7a4.3,4.3,0,0,1,.1-.5,1.1,1.1,0,0,1,.8-.9h1.8c.2.1.2.2.2.4v.3a.2.2,0,0,1-.2.2H44.7q-.3.2-.3.3a.8.8,0,0,0-.1.4v3.4a.7.7,0,0,0,.6.6H46c.4-.1.3,0,.3.3s0,.5-.4.5a3.3,3.3,0,0,1-1.4,0h-.1a1.4,1.4,0,0,1-1-1.2V32.4Z" transform="translate(-0.1 -0.1)" style="fill:#1dd9b5"/><path d="M92.1,32.7V30.2c-.1-.2-.1-.2-.3-.2h-.7a.2.2,0,0,1-.2-.2v-.4l.2-.2h2.7c.3,0,.4.1.3.4V30h-.8a.2.2,0,0,0-.2.2v5.1h-.7l-.2-.2V32.7Z" transform="translate(-0.1 -0.1)" style="fill:#1dd9b5"/><path d="M70.6,32.6V30.3c0-.3,0-.3-.4-.3h-.6c-.2,0-.2-.1-.2-.2v-.4l.2-.2h2.8c.2,0,.2.1.2.2v.3c0,.2,0,.3-.2.3h-.7a.2.2,0,0,0-.2.2v5c0,.2-.1.2-.2.2h-.5l-.2-.2V32.6Z" transform="translate(-0.1 -0.1)" style="fill:#1dd9b5"/><path d="M24.5,32.3V29.6h0c0-.3.1-.4.4-.4h.3l.2.2v5.1a.2.2,0,0,0,.2.2h1.6c0,.2.1.3,0,.5s-.1.1-.2.1H24.9c-.3,0-.4,0-.4-.3V32.3Z" transform="translate(-0.1 -0.1)" style="fill:#1dd9b5"/><path d="M41.5,35.4h-.2l-.4-.2c0-.1-.1-.2-.1-.3s-.6-1.5-1-2.3a.6.6,0,0,1,0-.6,26,26,0,0,0,1-2.5h.1c0-.1.1-.2.3-.2h.6a.1.1,0,0,1,.1.1l-.5,1.2-.6,1.4a.8.8,0,0,0,0,.7l1,2.5a.1.1,0,0,1,.1.1c0,.2,0,.2-.1.2Z" transform="translate(-0.1 -0.1)" style="fill:#1dd9b5"/><path d="M84.6,35.4h-.3c-.1,0-.2,0-.2-.1a3.6,3.6,0,0,0-.4-.9,8.7,8.7,0,0,0-.7-1.7.8.8,0,0,1,0-.7c.3-.9.7-1.7,1-2.5s.1-.3.5-.3h.4c.1,0,.1.1.1.2s-.1.2-.1.3L84,31.9c-.1.3-.2.5,0,.8A22.9,22.9,0,0,0,85,35a.4.4,0,0,0,.1.3c0,.1,0,.1-.2.1Z" transform="translate(-0.1 -0.1)" style="fill:#1dd9b5"/><path d="M58.8,32.3V29.4c0-.1,0-.2.2-.2h.4c.2,0,.2.1.3.3v5.8H59a.2.2,0,0,1-.2-.2V32.3Z" transform="translate(-0.1 -0.1)" style="fill:#1dd9b5"/><path d="M82.6,32.4v2.7c0,.3,0,.3-.4.3h-.3a.2.2,0,0,1-.2-.2V29.4a.2.2,0,0,1,.2-.2h.5l.2.2v3Z" transform="translate(-0.1 -0.1)" style="fill:#1dd9b5"/><path d="M74.2,32.3V29.4c.1-.1.1-.2.3-.2h.4c.1.1.2.1.2.3v5.8c0,.1-.1.1-.2.1h-.4c-.2,0-.2-.1-.2-.2a.4.4,0,0,1-.1-.3V32.3Z" transform="translate(-0.1 -0.1)" style="fill:#1dd9b5"/><path d="M38.8,32.3V29.4c0-.1,0-.2.1-.2H39c.3,0,.4.1.4.4v5.7c0,.1,0,.1-.1.1H39a.2.2,0,0,1-.2-.2V32.3Z" transform="translate(-0.1 -0.1)" style="fill:#1dd9b5"/><path d="M6.7,22.9H4.2V18.2c0-.3,0-.3.3-.3H9c.1,0,.2,0,.2.2v4.7H6.7Zm1.5-2.5V19c0-.1-.1-.1-.2-.1H5.5c-.3,0-.3,0-.3.3v2.4h0c0,.2,0,.2.2.2H7.9c.2,0,.3,0,.3-.2V20.4Z" transform="translate(-0.1 -0.1)" style="fill:#1dd9b5"/><path d="M6.8,26.9h3.5c.2,0,.3.1.3.2a1.3,1.3,0,0,1-.1.6c0,.1,0,.2-.2.2H3c-.1-.1-.2-.1-.2-.3v-.5l.3-.3H6.8Z" transform="translate(-0.1 -0.1)" style="fill:#1dd9b5"/><path d="M6.7,25.5H5c-.3,0-.4,0-.4-.3v-.5c0-.2.1-.2.2-.2H8.6l.2.2v.6l-.2.2H6.7Z" transform="translate(-0.1 -0.1)" style="fill:#1dd9b5"/></svg>